<svg width="185" height="20" viewBox="0 0 185 20" fill="none" xmlns="http://www.w3.org/2000/svg">
<path d="M10 1C14.9706 1 19 5.02944 19 10C19 14.9706 14.9706 19 10 19C5.02944 19 1 14.9706 1 10C1 5.02944 5.02944 1 10 1Z" stroke="#808080" stroke-width="1.5" stroke-linecap="round" stroke-linejoin="round"/>
<path d="M32.136 15.14C31.1653 15.14 30.358 14.958 29.714 14.594C29.0793 14.2207 28.6033 13.7027 28.286 13.04C27.9687 12.368 27.81 11.584 27.81 10.688C27.81 9.708 27.9593 8.854 28.258 8.126C28.5567 7.398 29.0233 6.838 29.658 6.446C30.2927 6.04467 31.114 5.844 32.122 5.844C32.6447 5.844 33.116 5.88133 33.536 5.956C33.9653 6.03067 34.3667 6.13333 34.74 6.264V7.272C34.3667 7.132 33.97 7.02467 33.55 6.95C33.13 6.866 32.6867 6.824 32.22 6.824C31.408 6.824 30.764 6.978 30.288 7.286C29.812 7.594 29.4713 8.03733 29.266 8.616C29.0607 9.19467 28.958 9.88533 28.958 10.688C28.958 11.7987 29.2193 12.6573 29.742 13.264C30.274 13.8613 31.1093 14.16 32.248 14.16C32.668 14.16 33.0927 14.1273 33.522 14.062C33.9607 13.9967 34.3667 13.894 34.74 13.754V14.776C34.376 14.888 33.9793 14.9767 33.55 15.042C33.13 15.1073 32.6587 15.14 32.136 15.14ZM39.1742 15.14C38.0168 15.14 37.1722 14.846 36.6402 14.258C36.1175 13.6607 35.8562 12.802 35.8562 11.682C35.8562 10.5713 36.1222 9.71733 36.6542 9.12C37.1862 8.52267 38.0262 8.224 39.1742 8.224C40.3222 8.224 41.1622 8.52267 41.6942 9.12C42.2262 9.71733 42.4922 10.5713 42.4922 11.682C42.4922 12.802 42.2308 13.6607 41.7082 14.258C41.1855 14.846 40.3408 15.14 39.1742 15.14ZM39.1742 14.16C39.9675 14.16 40.5275 13.964 40.8542 13.572C41.1808 13.1707 41.3442 12.5407 41.3442 11.682C41.3442 10.8233 41.1762 10.198 40.8402 9.806C40.5135 9.40467 39.9582 9.204 39.1742 9.204C38.3902 9.204 37.8302 9.40467 37.4942 9.806C37.1675 10.198 37.0042 10.8233 37.0042 11.682C37.0042 12.5407 37.1675 13.1707 37.4942 13.572C37.8208 13.964 38.3808 14.16 39.1742 14.16ZM43.8952 15V8.364H44.9312L45.0012 9.12C45.3186 8.85867 45.6872 8.644 46.1072 8.476C46.5366 8.308 47.0266 8.224 47.5772 8.224C48.4172 8.224 49.0286 8.42 49.4112 8.812C49.7939 9.204 49.9852 9.82 49.9852 10.66V15H48.8372V10.702C48.8372 10.1233 48.7206 9.722 48.4872 9.498C48.2539 9.26467 47.8059 9.148 47.1432 9.148C46.7326 9.148 46.3452 9.22267 45.9812 9.372C45.6172 9.52133 45.3046 9.72667 45.0432 9.988V15H43.8952ZM54.0216 15.14C53.3683 15.14 52.8736 14.9673 52.5376 14.622C52.2109 14.2673 52.0476 13.7773 52.0476 13.152V9.274H51.0396V8.364H52.0476V6.726L53.1956 6.376V8.364H55.0296L54.9596 9.274H53.1956V13.096C53.1956 13.4973 53.2843 13.7867 53.4616 13.964C53.6483 14.132 53.9656 14.216 54.4136 14.216C54.6563 14.216 54.9223 14.1693 55.2116 14.076V14.944C54.8663 15.0747 54.4696 15.14 54.0216 15.14ZM59.5172 15.14C58.3318 15.14 57.4452 14.8553 56.8572 14.286C56.2692 13.7167 55.9752 12.8393 55.9752 11.654C55.9752 10.59 56.2272 9.75467 56.7312 9.148C57.2445 8.532 58.0518 8.224 59.1532 8.224C59.8065 8.224 60.3432 8.34533 60.7632 8.588C61.1925 8.82133 61.5098 9.148 61.7152 9.568C61.9298 9.97867 62.0372 10.4453 62.0372 10.968V12.214H57.1232C57.1605 12.718 57.2678 13.1147 57.4452 13.404C57.6318 13.6933 57.9072 13.9033 58.2712 14.034C58.6445 14.1553 59.1345 14.216 59.7412 14.216C60.4225 14.216 61.0478 14.0993 61.6172 13.866V14.762C61.3278 14.8833 61.0012 14.9767 60.6372 15.042C60.2825 15.1073 59.9092 15.14 59.5172 15.14ZM57.1232 11.388H61.0152V10.842C61.0152 10.3007 60.8705 9.88533 60.5812 9.596C60.3012 9.29733 59.8345 9.148 59.1812 9.148C58.3878 9.148 57.8465 9.33467 57.5572 9.708C57.2678 10.0813 57.1232 10.6413 57.1232 11.388ZM63.44 15V8.364H64.476L64.546 9.12C64.8633 8.85867 65.232 8.644 65.652 8.476C66.0813 8.308 66.5713 8.224 67.122 8.224C67.962 8.224 68.5733 8.42 68.956 8.812C69.3387 9.204 69.53 9.82 69.53 10.66V15H68.382V10.702C68.382 10.1233 68.2653 9.722 68.032 9.498C67.7987 9.26467 67.3507 9.148 66.688 9.148C66.2773 9.148 65.89 9.22267 65.526 9.372C65.162 9.52133 64.8493 9.72667 64.588 9.988V15H63.44ZM73.5664 15.14C72.913 15.14 72.4184 14.9673 72.0824 14.622C71.7557 14.2673 71.5924 13.7773 71.5924 13.152V9.274H70.5844V8.364H71.5924V6.726L72.7404 6.376V8.364H74.5744L74.5044 9.274H72.7404V13.096C72.7404 13.4973 72.829 13.7867 73.0064 13.964C73.193 14.132 73.5104 14.216 73.9584 14.216C74.201 14.216 74.467 14.1693 74.7564 14.076V14.944C74.411 15.0747 74.0144 15.14 73.5664 15.14ZM81.4625 15.14C80.5292 15.14 79.7965 14.8833 79.2645 14.37C78.7325 13.8473 78.4665 12.984 78.4665 11.78C78.4665 10.5853 78.7418 9.694 79.2925 9.106C79.8525 8.518 80.5992 8.224 81.5325 8.224C82.3632 8.224 83.0818 8.434 83.6885 8.854V5.564H84.8365V15H83.8565L83.7725 14.3C83.4645 14.5893 83.1238 14.804 82.7505 14.944C82.3865 15.0747 81.9571 15.14 81.4625 15.14ZM81.7565 14.216C82.1392 14.216 82.4938 14.1507 82.8205 14.02C83.1472 13.8893 83.4365 13.6887 83.6885 13.418V9.806C83.4552 9.60067 83.1798 9.442 82.8625 9.33C82.5452 9.20867 82.1858 9.148 81.7845 9.148C81.0472 9.148 80.5012 9.36267 80.1465 9.792C79.7918 10.212 79.6145 10.8747 79.6145 11.78C79.6145 12.648 79.7778 13.2733 80.1045 13.656C80.4312 14.0293 80.9818 14.216 81.7565 14.216ZM88.5089 15.14C88.0889 15.14 87.7015 15.0653 87.3469 14.916C86.9922 14.7667 86.7075 14.5473 86.4929 14.258C86.2782 13.9593 86.1709 13.586 86.1709 13.138C86.1709 12.5313 86.3715 12.0367 86.7729 11.654C87.1742 11.262 87.8275 11.066 88.7329 11.066H91.0429V10.66C91.0429 10.296 90.9915 10.0067 90.8889 9.792C90.7955 9.57733 90.6135 9.42333 90.3429 9.33C90.0722 9.23667 89.6755 9.19 89.1529 9.19C88.7515 9.19 88.3642 9.22267 87.9909 9.288C87.6175 9.35333 87.2675 9.442 86.9409 9.554V8.602C87.2395 8.49 87.5895 8.40133 87.9909 8.336C88.4015 8.26133 88.8402 8.224 89.3069 8.224C90.2495 8.224 90.9542 8.41533 91.4209 8.798C91.8969 9.18067 92.1349 9.80133 92.1349 10.66V15H91.1689L91.0849 14.244C90.7955 14.5427 90.4455 14.7667 90.0349 14.916C89.6242 15.0653 89.1155 15.14 88.5089 15.14ZM88.8029 14.202C89.2882 14.202 89.7175 14.118 90.0909 13.95C90.4642 13.7727 90.7815 13.5347 91.0429 13.236V11.948H88.7609C88.2382 11.948 87.8649 12.046 87.6409 12.242C87.4169 12.438 87.3049 12.7367 87.3049 13.138C87.3049 13.5393 87.4402 13.8193 87.7109 13.978C87.9815 14.1273 88.3455 14.202 88.8029 14.202ZM96.1671 15.14C95.5137 15.14 95.0191 14.9673 94.6831 14.622C94.3564 14.2673 94.1931 13.7773 94.1931 13.152V9.274H93.1851V8.364H94.1931V6.726L95.3411 6.376V8.364H97.1751L97.1051 9.274H95.3411V13.096C95.3411 13.4973 95.4297 13.7867 95.6071 13.964C95.7937 14.132 96.1111 14.216 96.5591 14.216C96.8017 14.216 97.0677 14.1693 97.3571 14.076V14.944C97.0117 15.0747 96.6151 15.14 96.1671 15.14ZM100.459 15.14C100.039 15.14 99.6513 15.0653 99.2966 14.916C98.942 14.7667 98.6573 14.5473 98.4426 14.258C98.228 13.9593 98.1206 13.586 98.1206 13.138C98.1206 12.5313 98.3213 12.0367 98.7226 11.654C99.124 11.262 99.7773 11.066 100.683 11.066H102.993V10.66C102.993 10.296 102.941 10.0067 102.839 9.792C102.745 9.57733 102.563 9.42333 102.293 9.33C102.022 9.23667 101.625 9.19 101.103 9.19C100.701 9.19 100.314 9.22267 99.9406 9.288C99.5673 9.35333 99.2173 9.442 98.8906 9.554V8.602C99.1893 8.49 99.5393 8.40133 99.9406 8.336C100.351 8.26133 100.79 8.224 101.257 8.224C102.199 8.224 102.904 8.41533 103.371 8.798C103.847 9.18067 104.085 9.80133 104.085 10.66V15H103.119L103.035 14.244C102.745 14.5427 102.395 14.7667 101.985 14.916C101.574 15.0653 101.065 15.14 100.459 15.14ZM100.753 14.202C101.238 14.202 101.667 14.118 102.041 13.95C102.414 13.7727 102.731 13.5347 102.993 13.236V11.948H100.711C100.188 11.948 99.8146 12.046 99.5906 12.242C99.3666 12.438 99.2546 12.7367 99.2546 13.138C99.2546 13.5393 99.39 13.8193 99.6606 13.978C99.9313 14.1273 100.295 14.202 100.753 14.202ZM110.699 15.14C110.279 15.14 109.892 15.0653 109.537 14.916C109.183 14.7667 108.898 14.5473 108.683 14.258C108.469 13.9593 108.361 13.586 108.361 13.138C108.361 12.5313 108.562 12.0367 108.963 11.654C109.365 11.262 110.018 11.066 110.923 11.066H113.233V10.66C113.233 10.296 113.182 10.0067 113.079 9.792C112.986 9.57733 112.804 9.42333 112.533 9.33C112.263 9.23667 111.866 9.19 111.343 9.19C110.942 9.19 110.555 9.22267 110.181 9.288C109.808 9.35333 109.458 9.442 109.131 9.554V8.602C109.43 8.49 109.78 8.40133 110.181 8.336C110.592 8.26133 111.031 8.224 111.497 8.224C112.44 8.224 113.145 8.41533 113.611 8.798C114.087 9.18067 114.325 9.80133 114.325 10.66V15H113.359L113.275 14.244C112.986 14.5427 112.636 14.7667 112.225 14.916C111.815 15.0653 111.306 15.14 110.699 15.14ZM110.993 14.202C111.479 14.202 111.908 14.118 112.281 13.95C112.655 13.7727 112.972 13.5347 113.233 13.236V11.948H110.951C110.429 11.948 110.055 12.046 109.831 12.242C109.607 12.438 109.495 12.7367 109.495 13.138C109.495 13.5393 109.631 13.8193 109.901 13.978C110.172 14.1273 110.536 14.202 110.993 14.202ZM115.936 18.024V8.364H116.916L117 9.064C117.308 8.77467 117.644 8.56467 118.008 8.434C118.381 8.294 118.815 8.224 119.31 8.224C120.243 8.224 120.976 8.48533 121.508 9.008C122.04 9.52133 122.306 10.38 122.306 11.584C122.306 12.7787 122.04 13.67 121.508 14.258C120.976 14.846 120.238 15.14 119.296 15.14C118.428 15.14 117.69 14.93 117.084 14.51V18.024H115.936ZM118.988 14.216C119.734 14.216 120.28 14.006 120.626 13.586C120.98 13.1567 121.158 12.4893 121.158 11.584C121.158 10.716 120.994 10.0953 120.668 9.722C120.341 9.33933 119.79 9.148 119.016 9.148C118.633 9.148 118.278 9.21333 117.952 9.344C117.625 9.47467 117.336 9.67533 117.084 9.946V13.558C117.317 13.7633 117.592 13.9267 117.91 14.048C118.227 14.16 118.586 14.216 118.988 14.216ZM123.708 18.024V8.364H124.688L124.772 9.064C125.08 8.77467 125.416 8.56467 125.78 8.434C126.154 8.294 126.588 8.224 127.082 8.224C128.016 8.224 128.748 8.48533 129.28 9.008C129.812 9.52133 130.078 10.38 130.078 11.584C130.078 12.7787 129.812 13.67 129.28 14.258C128.748 14.846 128.011 15.14 127.068 15.14C126.2 15.14 125.463 14.93 124.856 14.51V18.024H123.708ZM126.76 14.216C127.507 14.216 128.053 14.006 128.398 13.586C128.753 13.1567 128.93 12.4893 128.93 11.584C128.93 10.716 128.767 10.0953 128.44 9.722C128.114 9.33933 127.563 9.148 126.788 9.148C126.406 9.148 126.051 9.21333 125.724 9.344C125.398 9.47467 125.108 9.67533 124.856 9.946V13.558C125.09 13.7633 125.365 13.9267 125.682 14.048C126 14.16 126.359 14.216 126.76 14.216ZM134.743 15.14C133.558 15.14 132.671 14.8553 132.083 14.286C131.495 13.7167 131.201 12.8393 131.201 11.654C131.201 10.59 131.453 9.75467 131.957 9.148C132.47 8.532 133.278 8.224 134.379 8.224C135.032 8.224 135.569 8.34533 135.989 8.588C136.418 8.82133 136.736 9.148 136.941 9.568C137.156 9.97867 137.263 10.4453 137.263 10.968V12.214H132.349C132.386 12.718 132.494 13.1147 132.671 13.404C132.858 13.6933 133.133 13.9033 133.497 14.034C133.87 14.1553 134.36 14.216 134.967 14.216C135.648 14.216 136.274 14.0993 136.843 13.866V14.762C136.554 14.8833 136.227 14.9767 135.863 15.042C135.508 15.1073 135.135 15.14 134.743 15.14ZM132.349 11.388H136.241V10.842C136.241 10.3007 136.096 9.88533 135.807 9.596C135.527 9.29733 135.06 9.148 134.407 9.148C133.614 9.148 133.072 9.33467 132.783 9.708C132.494 10.0813 132.349 10.6413 132.349 11.388ZM140.656 15.14C140.236 15.14 139.848 15.0653 139.494 14.916C139.139 14.7667 138.854 14.5473 138.64 14.258C138.425 13.9593 138.318 13.586 138.318 13.138C138.318 12.5313 138.518 12.0367 138.92 11.654C139.321 11.262 139.974 11.066 140.88 11.066H143.19V10.66C143.19 10.296 143.138 10.0067 143.036 9.792C142.942 9.57733 142.76 9.42333 142.49 9.33C142.219 9.23667 141.822 9.19 141.3 9.19C140.898 9.19 140.511 9.22267 140.138 9.288C139.764 9.35333 139.414 9.442 139.088 9.554V8.602C139.386 8.49 139.736 8.40133 140.138 8.336C140.548 8.26133 140.987 8.224 141.454 8.224C142.396 8.224 143.101 8.41533 143.568 8.798C144.044 9.18067 144.282 9.80133 144.282 10.66V15H143.316L143.232 14.244C142.942 14.5427 142.592 14.7667 142.182 14.916C141.771 15.0653 141.262 15.14 140.656 15.14ZM140.95 14.202C141.435 14.202 141.864 14.118 142.238 13.95C142.611 13.7727 142.928 13.5347 143.19 13.236V11.948H140.908C140.385 11.948 140.012 12.046 139.788 12.242C139.564 12.438 139.452 12.7367 139.452 13.138C139.452 13.5393 139.587 13.8193 139.858 13.978C140.128 14.1273 140.492 14.202 140.95 14.202ZM145.892 15V8.364H146.928L147.012 9.204C147.338 8.98933 147.721 8.79333 148.16 8.616C148.608 8.43867 149.046 8.308 149.476 8.224V9.12C149.214 9.176 148.93 9.25533 148.622 9.358C148.314 9.45133 148.02 9.55867 147.74 9.68C147.46 9.80133 147.226 9.92733 147.04 10.058V15H145.892ZM152.469 15.14C152.04 15.14 151.629 15.112 151.237 15.056C150.855 15 150.533 14.9253 150.271 14.832V13.824C150.589 13.936 150.92 14.02 151.265 14.076C151.62 14.132 151.97 14.16 152.315 14.16C152.903 14.16 153.323 14.0993 153.575 13.978C153.827 13.8473 153.953 13.6093 153.953 13.264C153.953 13.012 153.883 12.8207 153.743 12.69C153.613 12.5593 153.407 12.4427 153.127 12.34C152.857 12.2373 152.507 12.116 152.077 11.976C151.695 11.8453 151.354 11.71 151.055 11.57C150.757 11.43 150.523 11.2433 150.355 11.01C150.187 10.7673 150.103 10.4453 150.103 10.044C150.103 9.456 150.309 9.008 150.719 8.7C151.13 8.38267 151.793 8.224 152.707 8.224C153.062 8.224 153.403 8.252 153.729 8.308C154.056 8.35467 154.341 8.41533 154.583 8.49V9.498C153.995 9.302 153.431 9.204 152.889 9.204C152.311 9.204 151.891 9.26467 151.629 9.386C151.377 9.498 151.251 9.71267 151.251 10.03C151.251 10.2447 151.307 10.4173 151.419 10.548C151.541 10.6693 151.723 10.7767 151.965 10.87C152.217 10.954 152.539 11.0613 152.931 11.192C153.445 11.3507 153.86 11.514 154.177 11.682C154.495 11.85 154.728 12.0553 154.877 12.298C155.027 12.5407 155.101 12.858 155.101 13.25C155.101 13.9033 154.873 14.384 154.415 14.692C153.958 14.9907 153.309 15.14 152.469 15.14ZM159.448 15V5.564H160.596V9.078C160.904 8.826 161.264 8.62067 161.674 8.462C162.094 8.30333 162.58 8.224 163.13 8.224C163.933 8.224 164.535 8.42 164.936 8.812C165.338 9.204 165.538 9.82 165.538 10.66V15H164.39V10.702C164.39 10.1233 164.26 9.722 163.998 9.498C163.746 9.26467 163.326 9.148 162.738 9.148C162.365 9.148 161.978 9.232 161.576 9.4C161.184 9.55867 160.858 9.76867 160.596 10.03V15H159.448ZM170.196 15.14C169.011 15.14 168.124 14.8553 167.536 14.286C166.948 13.7167 166.654 12.8393 166.654 11.654C166.654 10.59 166.906 9.75467 167.41 9.148C167.923 8.532 168.731 8.224 169.832 8.224C170.485 8.224 171.022 8.34533 171.442 8.588C171.871 8.82133 172.189 9.148 172.394 9.568C172.609 9.97867 172.716 10.4453 172.716 10.968V12.214H167.802C167.839 12.718 167.947 13.1147 168.124 13.404C168.311 13.6933 168.586 13.9033 168.95 14.034C169.323 14.1553 169.813 14.216 170.42 14.216C171.101 14.216 171.727 14.0993 172.296 13.866V14.762C172.007 14.8833 171.68 14.9767 171.316 15.042C170.961 15.1073 170.588 15.14 170.196 15.14ZM167.802 11.388H171.694V10.842C171.694 10.3007 171.549 9.88533 171.26 9.596C170.98 9.29733 170.513 9.148 169.86 9.148C169.067 9.148 168.525 9.33467 168.236 9.708C167.947 10.0813 167.802 10.6413 167.802 11.388ZM174.119 15V8.364H175.155L175.239 9.204C175.565 8.98933 175.948 8.79333 176.387 8.616C176.835 8.43867 177.273 8.308 177.703 8.224V9.12C177.441 9.176 177.157 9.25533 176.849 9.358C176.541 9.45133 176.247 9.55867 175.967 9.68C175.687 9.80133 175.453 9.92733 175.267 10.058V15H174.119ZM181.667 15.14C180.482 15.14 179.595 14.8553 179.007 14.286C178.419 13.7167 178.125 12.8393 178.125 11.654C178.125 10.59 178.377 9.75467 178.881 9.148C179.394 8.532 180.202 8.224 181.303 8.224C181.956 8.224 182.493 8.34533 182.913 8.588C183.342 8.82133 183.66 9.148 183.865 9.568C184.08 9.97867 184.187 10.4453 184.187 10.968V12.214H179.273C179.31 12.718 179.418 13.1147 179.595 13.404C179.782 13.6933 180.057 13.9033 180.421 14.034C180.794 14.1553 181.284 14.216 181.891 14.216C182.572 14.216 183.198 14.0993 183.767 13.866V14.762C183.478 14.8833 183.151 14.9767 182.787 15.042C182.432 15.1073 182.059 15.14 181.667 15.14ZM179.273 11.388H183.165V10.842C183.165 10.3007 183.02 9.88533 182.731 9.596C182.451 9.29733 181.984 9.148 181.331 9.148C180.538 9.148 179.996 9.33467 179.707 9.708C179.418 10.0813 179.273 10.6413 179.273 11.388Z" fill="#808080"/>
<path d="M9.85547 13.6V10" stroke="#808080" stroke-width="1.5" stroke-linecap="round" stroke-linejoin="round"/>
<path d="M9.85547 6.39999H9.86447" stroke="#808080" stroke-width="1.5" stroke-linecap="round" stroke-linejoin="round"/>
</svg>
