<svg width="152" height="36" viewBox="0 0 152 36" fill="none" xmlns="http://www.w3.org/2000/svg">
<path d="M27.2467 35.3653H8.11859C3.62981 35.3653 0 31.7262 0 27.2467V8.11859C0 3.62981 3.62981 0 8.11859 0H27.2467C31.7262 0 35.3653 3.62981 35.3653 8.11859V27.2467C35.3653 31.7262 31.7262 35.3653 27.2467 35.3653Z" fill="black"/>
<path d="M26.6287 10.3722L24.9939 8.73743L13.4949 20.2365C12.3219 18.3153 12.6175 15.8123 14.2153 14.2145L14.5386 13.8912L12.9038 12.2564L12.5805 12.5797C10.0868 15.0734 9.77273 19.0542 11.8324 21.899L8.73828 24.9931L10.3731 26.6279L21.8721 15.1289C23.0451 17.05 22.7495 19.553 21.1517 21.1508L20.8284 21.4741L22.4632 23.1089L22.7865 22.7856C25.2803 20.2919 25.5943 16.3111 23.5346 13.4663L26.6287 10.3722Z" fill="white"/>
<path d="M51.953 17.752C51.2787 17.3456 50.3182 16.9946 49.1175 16.6991C48.1292 16.4589 47.3534 16.228 46.8084 16.0156C46.282 15.8124 45.9125 15.563 45.6909 15.2767C45.4784 14.9996 45.3768 14.6302 45.3768 14.1684C45.3768 13.3371 45.6724 12.7737 46.282 12.4412C46.9193 12.0902 47.8521 11.9147 49.0528 11.9147C49.7178 11.9147 50.3736 11.9702 50.9924 12.0717C51.6112 12.1733 52.1931 12.3211 52.7288 12.5151L52.9597 12.5982V10.594L52.8397 10.557C52.4425 10.4185 51.8699 10.2892 51.131 10.1691C50.4013 10.049 49.5978 9.98438 48.748 9.98438C46.8916 9.98438 45.4784 10.3631 44.5641 11.102C43.6312 11.8501 43.1602 12.8845 43.1602 14.1684C43.1602 15.2675 43.5019 16.1634 44.1854 16.8191C44.8504 17.4657 46.0141 17.9921 47.6397 18.3893C48.6372 18.6294 49.45 18.8696 50.0411 19.1005C50.6137 19.3221 51.0294 19.59 51.2695 19.904C51.5096 20.2088 51.6297 20.6337 51.6297 21.1694C51.6297 22.0283 51.3434 22.6102 50.7431 22.9335C50.1242 23.2752 49.1637 23.4415 47.9075 23.4415C47.1687 23.4415 46.4298 23.3768 45.7278 23.2475C45.0259 23.1182 44.3516 22.9335 43.7328 22.7026L43.4927 22.6102V24.6329L43.6035 24.6791C44.7395 25.1409 46.2358 25.3718 48.0646 25.3718C49.9487 25.3718 51.3988 25.0024 52.3594 24.282C53.3384 23.5523 53.8372 22.4994 53.8372 21.1601C53.8372 20.4397 53.6894 19.7932 53.4123 19.2205C53.1352 18.6664 52.6457 18.1676 51.953 17.752Z" fill="black"/>
<path d="M53.957 12.0347H58.806V25.1501H61.0042V12.0347H65.8532V10.2152H53.957V12.0347Z" fill="black"/>
<path d="M77.6128 19.6546C77.6128 20.9292 77.2526 21.8805 76.5507 22.4993C75.8395 23.1274 74.8235 23.4414 73.5304 23.4414C72.2189 23.4414 71.1937 23.1274 70.4825 22.4993C69.7805 21.8805 69.4203 20.9199 69.4203 19.6546V10.2152H67.2129V19.6361C67.2129 21.4926 67.7578 22.9334 68.8477 23.9124C69.9283 24.8915 71.4985 25.381 73.5304 25.381C75.5439 25.381 77.1141 24.8822 78.1947 23.9124C79.2753 22.9334 79.8295 21.4926 79.8295 19.6361V10.2152H77.6221L77.6128 19.6546Z" fill="black"/>
<path d="M91.0969 10.1691C90.4042 10.049 89.6191 9.98438 88.7694 9.98438C87.1161 9.98438 85.7399 10.3169 84.687 10.9726C83.6341 11.6284 82.849 12.5797 82.3502 13.7804C81.8607 14.9719 81.6113 16.3943 81.6113 17.9921C81.6113 19.4607 81.8792 20.763 82.3964 21.8621C82.9229 22.9704 83.7264 23.8386 84.7886 24.4574C85.8415 25.067 87.19 25.3718 88.7878 25.3718C89.6376 25.3718 90.4226 25.3164 91.1153 25.2148C91.8081 25.1132 92.4638 24.9654 93.0549 24.7807L93.175 24.7438V22.7118L92.9349 22.8042C92.3438 23.0258 91.6972 23.1921 91.0137 23.2937C90.321 23.3953 89.6376 23.4507 88.9633 23.4507C87.1807 23.4507 85.8692 22.9797 85.0472 22.0468C84.2252 21.114 83.8095 19.747 83.8095 18.0014C83.8095 16.7268 83.9758 15.6184 84.2991 14.7041C84.6131 13.8081 85.1488 13.1154 85.8877 12.6444C86.6266 12.1641 87.6425 11.924 88.9171 11.924C89.656 11.924 90.3672 11.9886 91.0415 12.1179C91.7065 12.2472 92.3438 12.4227 92.9349 12.6444L93.175 12.7368V10.714L93.0549 10.6771C92.4546 10.4647 91.7988 10.2892 91.0969 10.1691Z" fill="black"/>
<path d="M103.926 19.5437C103.815 19.3774 103.667 19.2297 103.501 19.0911C104.388 18.814 105.081 18.3522 105.561 17.6965C106.106 16.9576 106.374 16.0247 106.374 14.9164C106.374 13.494 105.995 12.3395 105.256 11.4898C104.508 10.64 103.307 10.2059 101.691 10.2059H95.1055V25.15H97.3129V19.6453H100.222C100.887 19.6453 101.358 19.7377 101.608 19.9039C101.857 20.0794 102.079 20.3842 102.263 20.8091L104.166 25.15H106.447L104.443 20.5135C104.259 20.1163 104.092 19.7838 103.926 19.5437ZM97.3037 12.0347H101.414C103.261 12.0347 104.166 12.9768 104.166 14.9164C104.166 15.9416 103.898 16.699 103.381 17.1515C102.855 17.6133 102.106 17.8442 101.174 17.8442H97.3129L97.3037 12.0347Z" fill="black"/>
<path d="M118.564 19.6546C118.564 20.9292 118.204 21.8805 117.502 22.4993C116.791 23.1274 115.775 23.4414 114.482 23.4414C113.17 23.4414 112.145 23.1274 111.434 22.4993C110.732 21.8805 110.372 20.9199 110.372 19.6546V10.2152H108.164V19.6361C108.164 21.4926 108.709 22.9334 109.799 23.9124C110.88 24.8915 112.45 25.381 114.482 25.381C116.495 25.381 118.065 24.8822 119.146 23.9124C120.226 22.9334 120.781 21.4926 120.781 19.6361V10.2152H118.573L118.564 19.6546Z" fill="black"/>
<path d="M133.314 19.6546C133.314 20.9292 132.954 21.8805 132.252 22.4993C131.541 23.1274 130.525 23.4414 129.232 23.4414C127.92 23.4414 126.895 23.1274 126.184 22.4993C125.482 21.8805 125.121 20.9199 125.121 19.6546V10.2152H122.914V19.6361C122.914 21.4926 123.459 22.9334 124.549 23.9124C125.629 24.8915 127.2 25.381 129.232 25.381C131.245 25.381 132.815 24.8822 133.896 23.9124C134.976 22.9334 135.531 21.4926 135.531 19.6361V10.2152H133.323L133.314 19.6546Z" fill="black"/>
<path d="M149.718 10.2152L144.888 20.1164L140.057 10.2152H137.785V25.1501H139.965V14.039L144.121 22.5178L144.167 22.6101H145.636L149.811 14.039V25.1501H152V10.2152H149.718Z" fill="black"/>
</svg>
